<?xml version="1.0" encoding="UTF-8" standalone="no"?>
<!DOCTYPE svg PUBLIC "-//W3C//DTD SVG 1.1//EN"
 "http://www.w3.org/Graphics/SVG/1.1/DTD/svg11.dtd">
<!-- Generated by graphviz version 2.50.0 (20211204.2007)
 -->
<!-- Title: operations_on_datastructures::linked_list::LinkedList Pages: 1 -->
<svg width="193pt" height="139pt"
 viewBox="0.00 0.00 193.00 139.00" xmlns="http://www.w3.org/2000/svg" xmlns:xlink="http://www.w3.org/1999/xlink">
<g id="graph0" class="graph" transform="scale(1 1) rotate(0) translate(4 135)">
<title>operations_on_datastructures::linked_list::LinkedList</title>
<polygon fill="white" stroke="transparent" points="-4,4 -4,-135 189,-135 189,4 -4,4"/>
<!-- Node1 -->
<g id="node1" class="node">
<title>Node1</title>
<g id="a_node1"><a xlink:title=" ">
<polygon fill="#bfbfbf" stroke="black" points="0,-0.5 0,-30.5 145,-30.5 145,-0.5 0,-0.5"/>
<text text-anchor="start" x="8" y="-18.5" font-family="Helvetica,sans-Serif" font-size="10.00">operations_on_datastructures</text>
<text text-anchor="middle" x="72.5" y="-7.5" font-family="Helvetica,sans-Serif" font-size="10.00">::linked_list::LinkedList</text>
</a>
</g>
</g>
<!-- Node2 -->
<g id="node2" class="node">
<title>Node2</title>
<g id="a_node2"><a xlink:href="../../da/d04/structoperations__on__datastructures_1_1linked__list_1_1_node.html" target="_top" xlink:title="A Node struct representing a node in the list.">
<polygon fill="white" stroke="black" points="0,-100.5 0,-130.5 145,-130.5 145,-100.5 0,-100.5"/>
<text text-anchor="start" x="8" y="-118.5" font-family="Helvetica,sans-Serif" font-size="10.00">operations_on_datastructures</text>
<text text-anchor="middle" x="72.5" y="-107.5" font-family="Helvetica,sans-Serif" font-size="10.00">::linked_list::Node</text>
</a>
</g>
</g>
<!-- Node2&#45;&gt;Node1 -->
<g id="edge1" class="edge">
<title>Node2&#45;&gt;Node1</title>
<path fill="none" stroke="#9a32cd" stroke-dasharray="5,2" d="M72.5,-90.28C72.5,-71.48 72.5,-46.08 72.5,-30.51"/>
<polygon fill="#9a32cd" stroke="#9a32cd" points="69,-90.46 72.5,-100.46 76,-90.46 69,-90.46"/>
<text text-anchor="middle" x="87" y="-74" font-family="Helvetica,sans-Serif" font-size="10.00"> head</text>
<text text-anchor="middle" x="87" y="-63" font-family="Helvetica,sans-Serif" font-size="10.00">middle</text>
<text text-anchor="middle" x="87" y="-52" font-family="Helvetica,sans-Serif" font-size="10.00">tail</text>
</g>
<!-- Node2&#45;&gt;Node2 -->
<g id="edge2" class="edge">
<title>Node2&#45;&gt;Node2</title>
<path fill="none" stroke="#9a32cd" stroke-dasharray="5,2" d="M155.19,-121.94C160.07,-120.4 163,-118.25 163,-115.5 163,-111.2 155.87,-108.38 145.29,-107.04"/>
<polygon fill="#9a32cd" stroke="#9a32cd" points="154.39,-118.53 145.29,-123.96 155.79,-125.39 154.39,-118.53"/>
<text text-anchor="middle" x="174" y="-118.5" font-family="Helvetica,sans-Serif" font-size="10.00"> next</text>
<text text-anchor="middle" x="174" y="-107.5" font-family="Helvetica,sans-Serif" font-size="10.00">prev</text>
</g>
</g>
</svg>
